<svg width="32" height="32" viewBox="0 0 32 32" fill="none" xmlns="http://www.w3.org/2000/svg">
<path d="M24 7.49999C24 12.1944 20.4183 16 16 16C11.5817 16 8 12.1944 8 7.49999C8 4.75146 9.22781 2.30762 11.1325 0.753876C4.67599 2.81344 0 8.86066 0 16C0 23.058 4.57006 29.0487 10.9125 31.1742C9.13381 29.7069 8 27.4859 8 25C8 20.5817 11.5817 17 16 17C20.4183 17 24 20.5817 24 25C24 27.4859 22.8662 29.7069 21.0875 31.1742C27.4299 29.0487 32 23.058 32 16C32 8.86066 27.324 2.81344 20.8676 0.753878C22.7722 2.30762 24 4.75146 24 7.49999Z" fill="#D90429"/>
</svg>
